<svg xmlns="http://www.w3.org/2000/svg" width="12" height="12" viewBox="0 0 12 12"><g><g><path d="M12 11.075c0 .25-.091.466-.274.649a.886.886 0 0 1-.649.274.856.856 0 0 1-.649-.274L7.955 9.257c-.861.597-1.82.895-2.878.895a4.993 4.993 0 0 1-1.973-.4A5.088 5.088 0 0 1 1.482 8.67 5.09 5.09 0 0 1 .4 7.048 4.996 4.996 0 0 1 0 5.074c0-.687.133-1.344.4-1.972A5.082 5.082 0 0 1 1.482 1.48 5.086 5.086 0 0 1 3.104.398a4.986 4.986 0 0 1 1.973-.4c.687 0 1.345.133 1.972.4a5.087 5.087 0 0 1 1.623 1.081c.454.455.815.996 1.082 1.623.267.628.4 1.285.4 1.972a4.939 4.939 0 0 1-.894 2.878l2.473 2.475a.88.88 0 0 1 .267.648zm-3.692-6c0-.89-.316-1.65-.948-2.283a3.111 3.111 0 0 0-2.283-.948c-.89 0-1.65.316-2.283.948a3.111 3.111 0 0 0-.948 2.282c0 .89.316 1.651.948 2.283a3.112 3.112 0 0 0 2.283.949c.89 0 1.65-.316 2.283-.949a3.112 3.112 0 0 0 .948-2.283z"/></g></g></svg>